<svg xmlns="http://www.w3.org/2000/svg" viewBox="0 0 64 64" role="img" aria-label="Atlanta — peach">
  <rect width="64" height="64" rx="14" fill="#f6efe4"/>
  <!-- peach body with the cleft, leaf on top -->
  <path d="M32 20 C22 12 9 18 9 32 C9 44 20 54 32 54 C44 54 55 44 55 32 C55 18 42 12 32 20 Z" fill="#ec8f57"/>
  <path d="M32 20 C33 30 33 42 32 54" stroke="#d4703d" stroke-width="2.2" stroke-linecap="round" fill="none"/>
  <path d="M33 19 C34 12 40 9 46 11 C45 17 40 21 33 19 Z" fill="#4f8a4b"/>
  <path d="M34 18 C37 15 40 13 44 12" stroke="#f6efe4" stroke-width="1.2" stroke-linecap="round" fill="none"/>
  <circle cx="26" cy="35" r="1.9" fill="#f6efe4"/>
  <circle cx="38" cy="35" r="1.9" fill="#f6efe4"/>
  <path d="M28.5 41.5 C30 43 34 43 35.5 41.5" stroke="#f6efe4" stroke-width="1.8" stroke-linecap="round" fill="none"/>
</svg>
